<svg viewBox="0 0 38 44" fill="none" xmlns="http://www.w3.org/2000/svg">
<g filter="url(#filter0_f_32_189)">
<rect x="1" y="15" width="24" height="24" fill="white"/>
<g filter="url(#filter1_d_32_189)">
<rect x="7" y="17" width="24" height="24" fill="white"/>
</g>
<path fill-rule="evenodd" clip-rule="evenodd" d="M25 25C31.6274 25 37 19.6274 37 13C37 6.37258 31.6274 1 25 1C18.3726 1 13 6.37258 13 13C13 19.6274 18.3726 25 25 25ZM25 15C26.1046 15 27 14.1046 27 13C27 11.8954 26.1046 11 25 11C23.8954 11 23 11.8954 23 13C23 14.1046 23.8954 15 25 15Z" fill="white"/>
<g filter="url(#filter2_d_32_189)">
<rect x="13" y="19" width="24" height="24" fill="white"/>
</g>
</g>
<defs>
<filter id="filter0_f_32_189" x="0" y="0" width="38" height="44" filterUnits="userSpaceOnUse" color-interpolation-filters="sRGB">
<feFlood flood-opacity="0" result="BackgroundImageFix"/>
<feBlend mode="normal" in="SourceGraphic" in2="BackgroundImageFix" result="shape"/>
</filter>
<filter id="filter1_d_32_189" x="6" y="16" width="25" height="25" filterUnits="userSpaceOnUse" color-interpolation-filters="sRGB">
<feFlood flood-opacity="0" result="BackgroundImageFix"/>
<feColorMatrix in="SourceAlpha" type="matrix" values="0 0 0 0 0 0 0 0 0 0 0 0 0 0 0 0 0 0 127 0" result="hardAlpha"/>
<feOffset dx="-1" dy="-1"/>
<feComposite in2="hardAlpha" operator="out"/>
<feColorMatrix type="matrix" values="0 0 0 0 0 0 0 0 0 0 0 0 0 0 0 0 0 0 0.4 0"/>
<feBlend mode="normal" in2="BackgroundImageFix" result="effect1_dropShadow_32_189"/>
<feBlend mode="normal" in="SourceGraphic" in2="effect1_dropShadow_32_189" result="shape"/>
</filter>
<filter id="filter2_d_32_189" x="12" y="18" width="25" height="25" filterUnits="userSpaceOnUse" color-interpolation-filters="sRGB">
<feFlood flood-opacity="0" result="BackgroundImageFix"/>
<feColorMatrix in="SourceAlpha" type="matrix" values="0 0 0 0 0 0 0 0 0 0 0 0 0 0 0 0 0 0 127 0" result="hardAlpha"/>
<feOffset dx="-1" dy="-1"/>
<feComposite in2="hardAlpha" operator="out"/>
<feColorMatrix type="matrix" values="0 0 0 0 0 0 0 0 0 0 0 0 0 0 0 0 0 0 0.25 0"/>
<feBlend mode="normal" in2="BackgroundImageFix" result="effect1_dropShadow_32_189"/>
<feBlend mode="normal" in="SourceGraphic" in2="effect1_dropShadow_32_189" result="shape"/>
</filter>
</defs>
</svg>
