<svg viewBox="0 0 17 17" fill="none" xmlns="http://www.w3.org/2000/svg">
<rect x="3" y="7" width="1" height="2" fill="#545454"/>
<rect x="1" y="7" width="2" height="1" fill="white"/>
<rect x="14" y="7" width="2" height="1" fill="white"/>
<rect x="6" y="7" width="5" height="1" fill="#545454"/>
<rect x="6" y="8" width="1" height="1" fill="#545454"/>
<rect x="10" y="8" width="1" height="1" fill="#545454"/>
<rect x="13" y="7" width="1" height="2" fill="#545454"/>
<rect x="5" y="12" width="7" height="1" fill="#545454"/>
<rect y="3" width="17" height="1" fill="#545454"/>
<rect y="4" width="1" height="9" fill="#545454"/>
<rect x="4" y="6" width="9" height="1" fill="#545454"/>
<rect x="4" y="9" width="9" height="1" fill="#545454"/>
<rect x="16" y="4" width="1" height="9" fill="#545454"/>
<rect y="13" width="17" height="1" fill="#545454"/>
<rect x="1" y="4" width="15" height="1" fill="#848484"/>
<rect x="1" y="5" width="15" height="1" fill="#848484"/>
<rect x="1" y="10" width="15" height="1" fill="#848484"/>
<rect x="1" y="11" width="15" height="1" fill="#848484"/>
<rect x="4" y="7" width="2" height="2" fill="#C5C5C5"/>
<rect x="1" y="6" width="3" height="1" fill="#D9D9D9"/>
<rect x="13" y="6" width="3" height="1" fill="#D9D9D9"/>
<rect x="7" y="8" width="3" height="1" fill="#C5C5C5"/>
<rect x="7" y="8" width="3" height="1" fill="#C5C5C5"/>
<rect x="11" y="7" width="2" height="2" fill="#C5C5C5"/>
<rect x="1" y="12" width="4" height="1" fill="#848484"/>
<rect x="12" y="12" width="4" height="1" fill="#848484"/>
<rect x="1" y="8" width="2" height="1" fill="#C5C5C5"/>
<rect x="13" y="9" width="3" height="1" fill="#C5C5C5"/>
<rect x="14" y="8" width="2" height="1" fill="#C5C5C5"/>
<rect x="1" y="9" width="3" height="1" fill="#C5C5C5"/>
</svg>
