<svg viewBox="0 0 38 38" fill="none" xmlns="http://www.w3.org/2000/svg">
<circle cx="19" cy="19" r="18.5" stroke="white"/>
<path fill-rule="evenodd" clip-rule="evenodd" d="M19 25C22.3137 25 25 22.3137 25 19C25 15.6863 22.3137 13 19 13C15.6863 13 13 15.6863 13 19C13 22.3137 15.6863 25 19 25ZM19 20C19.5523 20 20 19.5523 20 19C20 18.4477 19.5523 18 19 18C18.4477 18 18 18.4477 18 19C18 19.5523 18.4477 20 19 20Z" fill="white"/>
<path fill-rule="evenodd" clip-rule="evenodd" d="M26 18.9999C26 18.6151 25.9689 18.2375 25.9092 17.8695L35.8034 16.4061C35.9328 17.2518 36 18.118 36 18.9999C36 22.8253 34.7365 26.3555 32.6041 29.1961L24.5345 23.2864C25.4532 22.102 26 20.6148 26 18.9999ZM12.0312 19.6657C12.0106 19.4466 12 19.2245 12 18.9999C12 17.4285 12.5178 15.978 13.3921 14.8098L5.55496 8.59521C3.32646 11.4707 2 15.0804 2 18.9999C2 19.5904 2.0301 20.1738 2.08886 20.7488L12.0312 19.6657Z" fill="white"/>
</svg>
