<svg viewBox="0 0 16 16" fill="none" xmlns="http://www.w3.org/2000/svg">
<g clip-path="url(#clip0_75_17247)">
<rect x="3" y="5" width="1" height="11" fill="#848484"/>
<rect x="4" y="15" width="8" height="1" fill="#848484"/>
<rect x="12" y="5" width="1" height="11" fill="#848484"/>
<rect x="13" y="7" width="3" height="1" fill="#848484"/>
<rect x="15" y="4" width="1" height="3" fill="#848484"/>
<rect width="1" height="1" transform="matrix(-1 0 0 1 15 3)" fill="#848484"/>
<rect x="14" y="2" width="1" height="1" fill="#848484"/>
<rect x="13" y="1" width="1" height="1" fill="#848484"/>
<rect x="10" width="3" height="1" fill="#848484"/>
<rect x="1" y="3" width="1" height="1" fill="#848484"/>
<rect x="1" y="2" width="1" height="1" fill="#848484"/>
<rect x="2" y="1" width="1" height="1" fill="#848484"/>
<rect x="3" width="3" height="1" fill="#848484"/>
<rect x="6" y="1" width="1" height="1" fill="#848484"/>
<rect x="9" y="1" width="1" height="1" fill="#848484"/>
<rect x="7" y="2" width="2" height="1" fill="#848484"/>
<rect y="4" width="1" height="3" fill="#848484"/>
<rect y="7" width="3" height="1" fill="#848484"/>
<rect x="1" y="6" width="1" height="1" fill="#D5D5D5"/>
<rect x="2" y="6" width="1" height="1" fill="#D5D5D5"/>
<rect x="2" y="5" width="1" height="1" fill="#D5D5D5"/>
<rect x="3" y="3" width="1" height="1" fill="#D5D5D5"/>
<rect x="3" y="4" width="1" height="1" fill="#D5D5D5"/>
<rect x="4" y="5" width="1" height="1" fill="#D5D5D5"/>
<rect x="4" y="6" width="1" height="1" fill="#D5D5D5"/>
<rect x="4" y="7" width="1" height="1" fill="#D5D5D5"/>
<rect x="2" y="4" width="1" height="1" fill="#D5D5D5"/>
<rect x="4" y="8" width="1" height="1" fill="#D5D5D5"/>
<rect x="11" y="6" width="1" height="9" fill="#D5D5D5"/>
<rect x="10" y="9" width="1" height="6" fill="#D5D5D5"/>
<rect x="9" y="11" width="1" height="4" fill="#D5D5D5"/>
<rect x="8" y="12" width="1" height="3" fill="#D5D5D5"/>
<rect x="14" y="4" width="1" height="3" fill="#D5D5D5"/>
<rect x="13" y="2" width="1" height="5" fill="#D5D5D5"/>
<rect x="7" y="13" width="1" height="2" fill="#D5D5D5"/>
<rect x="6" y="14" width="1" height="1" fill="#D5D5D5"/>
<rect x="12" y="1" width="1" height="1" fill="#D5D5D5"/>
<rect x="1" y="5" width="1" height="1" fill="white"/>
<rect x="1" y="4" width="1" height="1" fill="white"/>
<rect x="2" y="3" width="1" height="1" fill="white"/>
<rect x="2" y="2" width="5" height="1" fill="white"/>
<rect x="3" y="1" width="3" height="1" fill="white"/>
<rect x="10" y="1" width="2" height="1" fill="white"/>
<rect x="9" y="2" width="4" height="1" fill="white"/>
<rect x="4" y="3" width="9" height="1" fill="white"/>
<rect x="4" y="4" width="9" height="1" fill="white"/>
<rect x="5" y="5" width="7" height="1" fill="white"/>
<rect x="5" y="6" width="6" height="1" fill="white"/>
<rect x="5" y="7" width="6" height="1" fill="white"/>
<rect x="5" y="8" width="6" height="1" fill="white"/>
<rect x="4" y="9" width="6" height="1" fill="white"/>
<rect x="4" y="10" width="6" height="1" fill="white"/>
<rect x="4" y="11" width="5" height="1" fill="white"/>
<rect x="4" y="12" width="4" height="1" fill="white"/>
<rect x="4" y="13" width="3" height="1" fill="white"/>
<rect x="4" y="14" width="2" height="1" fill="white"/>
</g>
<defs>
<clipPath id="clip0_75_17247">
<rect width="16" height="16" fill="white"/>
</clipPath>
</defs>
</svg>
