<svg width="16" height="16" viewBox="0 0 16 16" fill="none" xmlns="http://www.w3.org/2000/svg">
<g clip-path="url(#clip0_79_16997)">
<rect y="3" width="1" height="1" fill="white"/>
<rect x="1" y="8" width="1" height="1" fill="white"/>
<rect x="2" y="9" width="1" height="1" fill="white"/>
<rect x="1" y="10" width="1" height="1" fill="white"/>
<rect x="3" y="8" width="1" height="1" fill="white"/>
<rect x="3" y="10" width="1" height="1" fill="white"/>
<rect x="2" y="8" width="1" height="1" fill="#878787"/>
<rect x="1" y="9" width="1" height="1" fill="#878787"/>
<rect x="3" y="3" width="1" height="1" fill="#878787"/>
<rect x="3" y="1" width="1" height="1" fill="#878787"/>
<rect x="8" y="12" width="1" height="1" fill="#878787"/>
<rect x="8" y="14" width="1" height="1" fill="#878787"/>
<rect x="9" y="15" width="1" height="1" fill="#878787"/>
<rect x="1" y="4" width="2" height="1" fill="white"/>
<rect y="4" width="1" height="1" fill="#979797"/>
<rect x="2" y="5" width="1" height="1" fill="#979797"/>
<rect x="4" y="6" width="1" height="1" fill="#979797"/>
<rect x="6" y="7" width="1" height="1" fill="#979797"/>
<rect x="9" y="9" width="2" height="1" fill="#979797"/>
<rect x="12" y="10" width="1" height="1" fill="#979797"/>
<rect x="14" y="11" width="1" height="1" fill="#979797"/>
<rect x="13" y="1" width="1" height="1" fill="#979797"/>
<rect x="14" y="1" width="1" height="1" fill="#505050"/>
<rect x="13" y="2" width="1" height="1" fill="#505050"/>
<rect x="11" y="5" width="1" height="1" fill="#505050"/>
<rect x="12" y="4" width="1" height="1" fill="#505050"/>
<rect x="10" y="7" width="1" height="1" fill="#505050"/>
<rect x="8" y="9" width="1" height="1" fill="#505050"/>
<rect x="7" y="12" width="1" height="1" fill="#505050"/>
<rect x="6" y="13" width="1" height="1" fill="#505050"/>
<rect x="5" y="15" width="1" height="1" fill="#505050"/>
<rect x="11" y="10" width="1" height="1" fill="#505050"/>
<rect x="13" y="11" width="1" height="1" fill="#505050"/>
<rect x="12" y="3" width="1" height="1" fill="#979797"/>
<path d="M11 4H12V5H11V4Z" fill="#979797"/>
<rect x="10" y="6" width="1" height="1" fill="#979797"/>
<rect x="9" y="7" width="1" height="1" fill="#979797"/>
<rect x="7" y="11" width="1" height="1" fill="#979797"/>
<rect x="6" y="12" width="1" height="1" fill="#979797"/>
<rect x="5" y="14" width="1" height="1" fill="#979797"/>
<rect x="4" y="15" width="1" height="1" fill="#979797"/>
<rect x="8" y="8" width="3" height="1" fill="white"/>
<rect x="7" y="9" width="1" height="2" fill="white"/>
<rect x="6" y="11" width="1" height="1" fill="white"/>
<rect x="5" y="12" width="1" height="2" fill="white"/>
<rect x="4" y="14" width="1" height="1" fill="white"/>
<rect x="4" y="1" width="4" height="1" fill="white"/>
<rect x="4" y="3" width="4" height="1" fill="white"/>
<rect x="5" y="4" width="5" height="1" fill="#878787"/>
<rect x="9" y="2" width="3" height="1" fill="#878787"/>
<rect x="8" y="1" width="4" height="1" fill="#878787"/>
<rect x="6" y="5" width="4" height="1" fill="#878787"/>
<rect x="8" y="6" width="1" height="1" fill="#878787"/>
<rect x="3" y="2" width="1" height="1" fill="white"/>
<rect x="8" y="2" width="1" height="1" fill="white"/>
<rect x="9" y="6" width="1" height="1" fill="white"/>
<rect x="10" y="4" width="1" height="2" fill="white"/>
<rect x="11" y="3" width="1" height="1" fill="white"/>
<rect x="12" y="1" width="1" height="2" fill="white"/>
<rect x="13" width="1" height="1" fill="white"/>
<rect x="11" y="9" width="2" height="1" fill="white"/>
<rect x="13" y="10" width="2" height="1" fill="white"/>
<rect width="1" height="1" transform="matrix(-1 0 0 1 16 11)" fill="white"/>
<rect x="9" y="12" width="3" height="1" fill="white"/>
<rect x="9" y="14" width="3" height="1" fill="white"/>
<rect x="8" y="13" width="1" height="1" fill="white"/>
<rect x="12" y="13" width="1" height="1" fill="white"/>
<rect x="7" y="7" width="2" height="1" fill="white"/>
<rect x="3" y="5" width="2" height="1" fill="white"/>
<rect x="5" y="6" width="2" height="1" fill="white"/>
<rect x="4" y="2" width="4" height="1" fill="#878787"/>
<rect x="8" y="3" width="3" height="1" fill="#878787"/>
<rect x="9" y="13" width="3" height="1" fill="#878787"/>
<rect x="12" y="14" width="3" height="1" fill="#878787"/>
<rect x="12" y="12" width="4" height="1" fill="#878787"/>
<rect x="10" y="15" width="4" height="1" fill="#878787"/>
<rect x="2" y="11" width="4" height="1" fill="#878787"/>
<rect x="4" y="8" width="4" height="1" fill="#878787"/>
<rect x="4" y="8" width="4" height="1" fill="#4F4F4F"/>
<rect x="8" y="1" width="4" height="1" fill="#4F4F4F"/>
<rect x="12" y="12" width="4" height="1" fill="#4F4F4F"/>
<rect x="3" y="12" width="2" height="1" fill="#878787"/>
<rect x="4" y="13" width="1" height="1" fill="#878787"/>
<rect x="2" y="10" width="1" height="1" fill="#878787"/>
<rect x="3" y="9" width="4" height="1" fill="#878787"/>
<rect x="4" y="10" width="3" height="1" fill="#878787"/>
<rect x="5" y="9" width="2" height="1" fill="#4F4F4F"/>
<rect x="10" y="2" width="2" height="1" fill="#4F4F4F"/>
<rect x="13" y="13" width="2" height="1" fill="#4F4F4F"/>
<rect x="7" y="2" width="1" height="1" fill="#4F4F4F"/>
<rect x="11" y="13" width="1" height="1" fill="#4F4F4F"/>
<rect x="9" y="2" width="1" height="1" fill="#4F4F4F"/>
<rect x="10" y="3" width="1" height="1" fill="#4F4F4F"/>
<rect x="15" y="12" width="1" height="1" fill="#505050"/>
</g>
<defs>
<clipPath id="clip0_79_16997">
<rect width="16" height="16" fill="white"/>
</clipPath>
</defs>
</svg>
